HIERARCHY
ROOT Hips
{
	OFFSET 0.00000 0.00000 0.00000
	CHANNELS 6 Xposition Yposition Zposition Zrotation Yrotation Xrotation 
	JOINT LHipJoint
	{
		OFFSET 0 0 0
		CHANNELS 3 Zrotation Yrotation Xrotation
		JOINT LeftHip
		{
			OFFSET 1.64577 -1.42384 0.94276
			CHANNELS 3 Zrotation Yrotation Xrotation
			JOINT LeftKnee
			{
				OFFSET 2.11538 -5.81197 0.00000
				CHANNELS 3 Zrotation Yrotation Xrotation
				JOINT LeftAnkle
				{
					OFFSET 2.36541 -6.49893 0.00000
					CHANNELS 3 Zrotation Yrotation Xrotation
					JOINT LeftToe
					{
						OFFSET 0.17759 -0.48793 1.73865
						CHANNELS 3 Zrotation Yrotation Xrotation
						End Site
						{
							OFFSET 0.00000 -0.00000 0.91205
						}
					}
				}
			}
		}
	}
	JOINT RHipJoint
	{
		OFFSET 0 0 0
		CHANNELS 3 Zrotation Yrotation Xrotation
		JOINT RightHip
		{
			OFFSET -1.43750 -1.42384 0.94276
			CHANNELS 3 Zrotation Yrotation Xrotation
			JOINT RightKnee
			{
				OFFSET -2.10480 -5.78291 0.00000
				CHANNELS 3 Zrotation Yrotation Xrotation
				JOINT RightAnkle
				{
					OFFSET -2.34880 -6.45329 0.00000
					CHANNELS 3 Zrotation Yrotation Xrotation
					JOINT RightToe
					{
						OFFSET -0.22842 -0.62757 1.80469
						CHANNELS 3 Zrotation Yrotation Xrotation
						End Site
						{
							OFFSET -0.00000 -0.00000 0.95886
						}
					}
				}
			}
		}
	}
	JOINT lowerback
	{
		OFFSET 0 0 0
		CHANNELS 3 Zrotation Yrotation Xrotation
		JOINT Chest
		{
			OFFSET 0.06217 1.93758 -0.49272
			CHANNELS 3 Zrotation Yrotation Xrotation
			JOINT Chest2
			{
				OFFSET -0.03114 2.03621 -0.05830
				CHANNELS 3 Zrotation Yrotation Xrotation
				JOINT lowerneck
				{
					OFFSET 0 0 0
					CHANNELS 3 Zrotation Yrotation Xrotation
					JOINT Neck
					{
						OFFSET 0.04421 1.41010 0.26562
						CHANNELS 3 Zrotation Yrotation Xrotation
						JOINT Head
						{
							OFFSET -0.13407 1.43847 0.06181
							CHANNELS 3 Zrotation Yrotation Xrotation
							End Site
							{
								OFFSET -0.04980 1.45844 -0.00689
							}
						}
					}
				}
				JOINT LeftCollar
				{
					OFFSET 0 0 0
					CHANNELS 3 Zrotation Yrotation Xrotation
					JOINT LeftShoulder
					{
						OFFSET 2.18382 1.47753 -0.35694
CHANNELS 3 Zrotation Xrotation Yrotation
						JOINT LeftElbow
						{
OFFSET 0 -5.054600 0.000000
CHANNELS 3 Zrotation Xrotation Yrotation
							JOINT LeftWrist
							{
OFFSET 0 -3.390130 0.000000
CHANNELS 3 Zrotation Xrotation Yrotation
								JOINT lhand
								{
									OFFSET 0 0 0
CHANNELS 3 Zrotation Xrotation Yrotation
									JOINT LFingers
									{
OFFSET 0 -0.572420 -0.000000
CHANNELS 3 Zrotation Xrotation Yrotation
										End Site
										{
OFFSET 0 -0.461500 -0.000000
										}
									}
								}
								JOINT LThumb
								{
OFFSET 0 0.000000 0.000000
CHANNELS 3 Zrotation Xrotation Yrotation
									End Site
									{
OFFSET 0 -0.468550 0.468550
									}
								}
							}
						}
					}
				}
				JOINT RightCollar
				{
					OFFSET 0 0 0
					CHANNELS 3 Zrotation Yrotation Xrotation
					JOINT RightShoulder
					{
						OFFSET -2.06033 1.72839 -0.47437
CHANNELS 3 Zrotation Xrotation Yrotation
						JOINT RightElbow
						{
OFFSET 0 -5.070100 0.000000
CHANNELS 3 Zrotation Xrotation Yrotation
							JOINT RightWrist
							{
OFFSET 0 -3.149570 -0.000000
CHANNELS 3 Zrotation Xrotation Yrotation
								JOINT rhand
								{
									OFFSET 0 0 0
CHANNELS 3 Zrotation Xrotation Yrotation
									JOINT RFingers
									{
OFFSET 0 -0.718190 -0.000000
CHANNELS 3 Zrotation Xrotation Yrotation
										End Site
										{
OFFSET 0 -0.579020 -0.000000
										}
									}
								}
								JOINT RThumb
								{
OFFSET 0 0.000000 0.000000
CHANNELS 3 Zrotation Xrotation Yrotation
									End Site
									{
OFFSET 0 -0.587860 0.587860
									}
								}
							}
						}
					}
				}
			}
		}
	}
}
MOTION
Frames: 11
Frame Time: 0.008333333333333333
-25.652100 15.173000 0.050600 170.289000 -86.308500 -171.999000 0.000000 0.000000 0.000000 -26.446500 -20.291600 2.940100 1.872300 8.594800 24.535800 1.019600 17.055300 -31.751500 0.006500 0.520000 1.428700 0.000000 0.000000 0.000000 23.544100 20.177600 0.614700 -2.185300 -9.241900 26.555100 -1.578600 -18.208600 -36.103300 -1.059500 6.544400 -18.372500 -3.210300 2.114000 2.721800 -1.581300 2.720600 3.329400 0.140500 1.277700 1.822400 6.448600 2.249000 -8.424400 -1.696500 2.377000 3.077500 -1.566500 1.207700 2.577200 0.000000 -0.000000 0.000000 2.610100 -1.658700 -34.192800 14.365800 -23.255200 2.971000 18.717300 8.238600 -14.369800 0.000000 0.000000 0.000000 -7.125000 0.000000 0.000000 -8.157300 44.959000 -0.008300 0.000000 -0.000000 0.000000 1.200700 2.122500 30.457900 -16.404600 -26.066200 -3.822000 -21.474900 -12.645500 0.422100 0.000000 0.000000 0.000000 7.125000 0.000000 -0.000000 4.029800 30.420100 1.437800
-25.652703 15.172142 0.052084 169.376770 -86.309684 -171.087706 0.000000 0.000000 0.000000 -26.517467 -20.331790 2.996895 1.860855 8.569965 24.459113 1.052725 16.921936 -31.823772 0.013690 0.754598 2.073719 0.000000 0.000000 0.000000 23.439025 20.082113 0.520656 -2.197122 -9.265164 26.628317 -1.575640 -18.147813 -36.030797 -1.082445 6.612629 -18.572815 -3.318635 2.095606 2.720023 -1.578693 2.694432 3.330393 0.203837 1.262090 1.820255 6.477984 2.184836 -8.400966 -1.854728 2.299954 3.135845 -1.628485 1.166256 2.593163 0.000000 0.000000 0.000000 2.534319 -1.702943 -34.200378 14.393606 -23.294629 2.982023 18.674973 8.346417 -14.784848 0.000000 0.000000 0.000000 -7.125000 0.000000 0.000000 -8.292809 45.383031 0.079092 0.000000 0.000000 0.000000 1.080998 2.145388 30.507466 -16.472896 -26.157731 -3.852076 -21.295358 -13.106601 0.371987 0.000000 0.000000 0.000000 7.125000 0.000000 0.000000 4.169226 30.365020 1.493270
-25.651987 15.172851 0.052000 168.723975 -86.300744 -170.437461 0.000000 0.000000 0.000000 -26.545839 -20.284379 2.986264 1.857877 8.563555 24.439204 1.062245 16.831423 -31.791732 0.015638 0.806857 2.217563 0.000000 0.000000 0.000000 23.405962 20.124631 0.533146 -2.198894 -9.268587 26.639239 -1.576579 -18.178705 -36.064607 -1.087962 6.628998 -18.620932 -3.428412 2.075640 2.754596 -1.591818 2.663855 3.321720 0.250351 1.244793 1.788681 6.454739 2.106401 -8.499424 -1.798612 2.187449 3.224317 -1.611622 1.112867 2.634650 0.000000 0.000000 0.000000 2.567189 -1.785851 -34.343810 14.377289 -23.271455 2.975549 18.904706 8.439372 -15.128123 0.000000 0.000000 0.000000 -7.125000 0.000000 0.000000 -8.162823 45.766815 0.155408 0.000000 0.000000 0.000000 1.000825 2.208970 30.750233 -16.497719 -26.190843 -3.863009 -21.487119 -13.254704 0.313614 0.000000 0.000000 0.000000 7.125000 0.000000 0.000000 4.015104 30.303966 1.443677
-25.652112 15.174023 0.053277 169.127683 -86.330633 -170.812359 0.000000 0.000000 0.000000 -26.510467 -20.316413 2.948427 1.859180 8.566428 24.448208 1.027235 16.948137 -31.690578 0.008498 0.589608 1.620209 0.000000 0.000000 0.000000 23.432129 20.150666 0.520290 -2.197939 -9.266736 26.633441 -1.579959 -18.199140 -36.102113 -1.084568 6.619003 -18.591409 -3.413731 2.076549 2.739482 -1.594242 2.666182 3.322916 0.240285 1.246177 1.799166 6.220570 2.041282 -8.690987 -1.517385 2.096039 3.310031 -1.480995 1.073944 2.684980 0.000000 0.000000 0.000000 2.656983 -1.907081 -34.752319 14.382696 -23.279088 2.977675 19.497426 8.268488 -14.900688 0.000000 0.000000 0.000000 -7.125000 0.000000 0.000000 -7.563033 45.605694 0.113824 0.000000 0.000000 0.000000 0.940531 2.157146 30.775745 -16.416521 -26.082150 -3.827281 -21.473449 -13.260085 0.253024 0.000000 0.000000 0.000000 7.125000 0.000000 0.000000 4.023145 30.238868 1.452855
-25.653932 15.171087 0.053777 169.345593 -86.330755 -171.067297 0.000000 0.000000 0.000000 -26.530712 -20.310890 2.988092 1.865189 8.579335 24.488119 1.040678 16.942535 -31.768769 0.011487 0.686778 1.887308 0.000000 0.000000 0.000000 23.448569 20.092011 0.566434 -2.194104 -9.259131 26.609435 -1.586229 -18.148378 -36.088012 -1.078920 6.602192 -18.542160 -3.388430 2.110324 2.736038 -1.611684 2.711789 3.348568 0.208245 1.268730 1.828189 5.949763 1.925096 -8.804892 -1.190914 1.943769 3.385715 -1.332630 1.006059 2.714218 0.000000 0.000000 0.000000 2.732222 -2.062642 -35.057748 14.353109 -23.237285 2.966041 19.405057 8.288576 -14.891157 0.000000 0.000000 0.000000 -7.125000 0.000000 0.000000 -7.646037 45.584032 0.111087 0.000000 0.000000 0.000000 0.922975 2.169310 30.784428 -16.382058 -26.035944 -3.812089 -21.678718 -12.931536 0.399676 0.000000 0.000000 0.000000 7.125000 0.000000 0.000000 3.867624 30.397828 1.381827
-25.653646 15.172010 0.054187 170.631194 -86.363839 -172.354543 0.000000 0.000000 0.000000 -26.455526 -20.370455 3.002766 1.871129 8.592263 24.528093 1.054794 16.911900 -31.826042 0.012129 0.711678 1.955770 0.000000 0.000000 0.000000 23.539270 20.065403 0.578966 -2.189452 -9.249908 26.580311 -1.573511 -18.180639 -36.050298 -1.081067 6.608517 -18.560610 -3.312817 2.137451 2.725765 -1.587335 2.750087 3.363647 0.191419 1.288930 1.850532 5.653217 1.804877 -8.844679 -0.889665 1.796163 3.449115 -1.188391 0.939537 2.726624 0.000000 0.000000 0.000000 2.809335 -2.144678 -35.417833 14.419723 -23.331604 2.992365 19.122692 8.414757 -15.292909 0.000000 0.000000 0.000000 -7.125000 0.000000 0.000000 -8.001047 45.965186 0.191840 0.000000 0.000000 0.000000 0.816113 2.174388 30.931198 -16.403261 -26.064443 -3.821451 -21.673623 -13.131282 0.588509 0.000000 0.000000 0.000000 7.125000 0.000000 0.000000 3.880275 30.600485 1.367480
-25.649067 15.172970 0.052711 169.947631 -86.425837 -171.662356 0.000000 0.000000 0.000000 -26.436138 -20.295105 2.911009 1.869821 8.589591 24.519669 1.002981 16.987733 -31.577916 0.004889 0.449339 1.234741 0.000000 0.000000 0.000000 23.514145 20.086871 0.566867 -2.189928 -9.250955 26.583401 -1.585245 -18.195346 -36.126703 -1.069811 6.575232 -18.462846 -3.401529 2.133032 2.815834 -1.589220 2.737446 3.338857 0.234843 1.281921 1.771076 5.554885 1.766493 -8.915618 -0.793121 1.745344 3.495939 -1.141827 0.916786 2.750831 0.000000 0.000000 0.000000 2.884707 -2.160480 -35.748146 14.452342 -23.377602 3.005260 19.269293 8.472429 -15.078261 0.000000 0.000000 0.000000 -7.125000 0.000000 0.000000 -7.814726 45.761223 0.147779 0.000000 0.000000 0.000000 0.781756 2.133653 30.905646 -16.389632 -26.046142 -3.815475 -21.464341 -13.451732 0.604813 0.000000 0.000000 0.000000 7.125000 0.000000 0.000000 4.046807 30.615863 1.424853
-25.646020 15.173578 0.052558 168.429461 -86.431292 -170.124860 0.000000 0.000000 0.000000 -26.508194 -20.276548 2.885991 1.860685 8.569725 24.458266 0.993033 16.980257 -31.507354 0.004755 0.438051 1.203678 0.000000 0.000000 0.000000 23.393069 20.041088 0.479254 -2.199766 -9.270340 26.644643 -1.597619 -18.121572 -36.123809 -1.042901 6.494637 -18.226680 -3.547679 2.124673 2.839441 -1.600346 2.722055 3.323074 0.303693 1.271716 1.736288 5.427999 1.751618 -8.879685 -0.650286 1.733749 3.465456 -1.073050 0.913411 2.728658 0.000000 0.000000 0.000000 2.996554 -2.193236 -36.229502 14.470121 -23.402803 3.012324 19.098533 8.343312 -15.050191 0.000000 0.000000 0.000000 -7.125000 0.000000 0.000000 -7.965645 45.710534 0.140717 0.000000 0.000000 0.000000 0.761966 2.101935 30.969364 -16.442341 -26.116738 -3.838617 -21.441949 -13.243262 0.952558 0.000000 0.000000 0.000000 7.125000 0.000000 0.000000 4.081884 30.988364 1.400801
-25.643669 15.172710 0.053070 167.834135 -86.447509 -169.554431 0.000000 0.000000 0.000000 -26.558633 -20.341029 2.958866 1.857766 8.563368 24.438774 1.037288 16.814005 -31.617193 0.020640 0.924340 2.540690 0.000000 0.000000 0.000000 23.358628 20.046503 0.474161 -2.204765 -9.280175 26.675669 -1.594549 -18.144516 -36.128880 -1.063564 6.556647 -18.408304 -3.632621 2.094026 2.865198 -1.615867 2.678059 3.323953 0.334821 1.247938 1.721213 5.711113 1.793720 -8.888780 -0.952709 1.775237 3.570168 -1.220887 0.930071 2.777588 0.000000 0.000000 0.000000 3.092174 -2.218108 -36.279003 14.497399 -23.441323 3.023169 18.823498 8.336508 -15.179574 0.000000 0.000000 0.000000 -7.125000 0.000000 0.000000 -8.250187 45.809717 0.166054 0.000000 0.000000 0.000000 0.753531 2.073842 31.101336 -16.475879 -26.161673 -3.853379 -21.253805 -13.187755 0.944757 0.000000 0.000000 0.000000 7.125000 0.000000 0.000000 4.230945 30.977615 1.453401
-25.642097 15.172123 0.054203 168.880788 -86.504052 -170.603760 0.000000 0.000000 0.000000 -26.487022 -20.393294 2.929940 1.868859 8.587359 24.512793 1.045726 16.788647 -31.644730 0.021260 0.939406 2.582223 0.000000 0.000000 0.000000 23.470482 20.142328 0.558259 -2.195063 -9.261104 26.615361 -1.595180 -18.254266 -36.234595 -1.059718 6.545128 -18.374555 -3.622348 2.021726 2.864942 -1.594357 2.582292 3.334269 0.352987 1.199843 1.734429 5.826874 1.852047 -8.901837 -1.043765 1.844276 3.606531 -1.267873 0.963695 2.798746 0.000000 0.000000 0.000000 3.125052 -2.305926 -36.069231 14.444792 -23.366998 3.002257 18.981651 8.386117 -15.227257 0.000000 0.000000 0.000000 -7.125000 0.000000 0.000000 -8.115653 45.879199 0.177167 0.000000 0.000000 0.000000 0.708280 1.971307 31.396817 -16.467516 -26.150445 -3.849675 -21.322149 -13.473850 0.460409 0.000000 0.000000 0.000000 7.125000 0.000000 0.000000 4.152320 30.460013 1.477758
-25.640611 15.173327 0.054706 171.760871 -86.485072 -173.419192 0.000000 0.000000 0.000000 -26.278038 -20.383757 2.737735 1.896384 8.646878 24.696739 1.045925 16.825082 -31.682765 0.010260 0.653180 1.794927 0.000000 0.000000 0.000000 23.673356 20.291301 0.644622 -2.166427 -9.204460 26.437116 -1.576587 -18.359493 -36.234147 -1.032700 6.463688 -18.135941 -3.492309 1.996871 2.865351 -1.545742 2.551379 3.261752 0.329599 1.189670 1.663410 5.598784 1.811332 -9.059354 -0.763703 1.786835 3.881989 -1.138430 0.946086 2.911597 0.000000 0.000000 0.000000 3.140309 -2.192304 -35.843866 14.438330 -23.357959 2.999754 19.216946 8.618388 -15.332727 0.000000 0.000000 0.000000 -7.125000 0.000000 0.000000 -7.923476 46.018485 0.200442 0.000000 0.000000 0.000000 0.701002 1.905158 31.433553 -16.425573 -26.094213 -3.831191 -20.955963 -13.834183 0.296310 0.000000 0.000000 0.000000 7.125000 0.000000 0.000000 4.433506 30.281410 1.597263
